<?xml version="1.0" encoding="UTF-8"?>
<svg id="Camada_2" data-name="Camada 2" xmlns="http://www.w3.org/2000/svg" viewBox="0 0 298.86 298.86">
  <defs>
    <style>
      .cls-1 {
        fill: #3fff33;
      }
    </style>
  </defs>
  <g id="FUT_ELEMENT" data-name="FUT ELEMENT">
    <g>
      <path class="cls-1" d="M5.44,34.73c-.7,0-1.41-.14-2.1-.43-2.06-.85-3.34-2.77-3.34-5V5.32C0,2.39,2.38,0,5.32,0h24c2.23,0,4.14,1.28,5,3.34.85,2.06.4,4.32-1.17,5.89l-23.9,23.9c-1.05,1.05-2.4,1.6-3.79,1.6ZM5.32,2c-1.83,0-3.32,1.49-3.32,3.32v24c0,1.68,1.09,2.73,2.1,3.15,1.02.42,2.53.45,3.71-.74L31.72,7.82c1.19-1.19,1.16-2.7.74-3.71-.42-1.02-1.47-2.1-3.15-2.1H5.32Z"/>
      <path class="cls-1" d="M5.44,104.08c-.7,0-1.41-.14-2.1-.43-2.06-.85-3.34-2.77-3.34-5v-26.38c0-1.45.56-2.8,1.58-3.82L68.45,1.58c1.02-1.02,2.38-1.58,3.82-1.58h26.38c2.23,0,4.14,1.28,5,3.34.85,2.06.4,4.32-1.17,5.89L9.23,102.48c-1.05,1.05-2.4,1.6-3.79,1.6ZM72.27,2c-.91,0-1.77.35-2.41,1L3,69.86c-.64.64-1,1.5-1,2.41v26.38c0,1.68,1.09,2.73,2.1,3.15,1.02.42,2.53.45,3.71-.74L101.07,7.82c1.19-1.19,1.16-2.7.74-3.71-.42-1.02-1.47-2.1-3.15-2.1h-26.38Z"/>
      <path class="cls-1" d="M5.44,173.42c-.7,0-1.41-.14-2.1-.43-2.06-.85-3.34-2.77-3.34-5v-26.38c0-1.45.56-2.8,1.58-3.82L137.79,1.58c1.02-1.02,2.38-1.58,3.82-1.58h26.38c2.23,0,4.14,1.28,5,3.34.85,2.06.4,4.32-1.17,5.89L9.23,171.82c-1.05,1.05-2.4,1.6-3.79,1.6ZM141.62,2c-.91,0-1.77.35-2.41,1L3,139.21c-.64.64-1,1.5-1,2.41v26.38c0,1.68,1.09,2.73,2.1,3.15,1.02.42,2.53.45,3.71-.74l.71.71-.71-.71L170.41,7.82c1.19-1.19,1.16-2.7.74-3.71-.42-1.02-1.47-2.1-3.15-2.1h-26.38Z"/>
      <path class="cls-1" d="M5.44,242.77c-.7,0-1.41-.14-2.1-.43-2.06-.85-3.34-2.77-3.34-5v-26.38c0-1.44.56-2.8,1.58-3.82L207.13,1.58c1.02-1.02,2.38-1.58,3.82-1.58h26.38c2.23,0,4.14,1.28,5,3.34.85,2.06.4,4.32-1.17,5.89L9.23,241.17c-1.05,1.05-2.4,1.6-3.79,1.6ZM210.96,2c-.91,0-1.77.35-2.41,1L3,208.55c-.64.64-1,1.5-1,2.41v26.38c0,1.68,1.09,2.73,2.1,3.15,1.02.42,2.53.45,3.71-.74L239.75,7.82c1.19-1.19,1.16-2.7.74-3.71-.42-1.02-1.47-2.1-3.15-2.1h-26.38Z"/>
      <path class="cls-1" d="M18.64,298.86H5.41c-2.98,0-5.41-2.43-5.41-5.41v-13.15c0-1.45.56-2.8,1.58-3.82L276.48,1.58c1.02-1.02,2.38-1.58,3.82-1.58h13.15c2.98,0,5.41,2.43,5.41,5.41v13.23c0,1.45-.56,2.8-1.58,3.82L22.47,297.28c-1.02,1.02-2.38,1.58-3.82,1.58ZM280.3,2c-.91,0-1.77.35-2.41,1L3,277.89c-.64.64-1,1.5-1,2.41v13.15c0,1.88,1.53,3.41,3.41,3.41h13.23c.91,0,1.77-.35,2.41-1L295.86,21.05c.64-.64,1-1.5,1-2.41V5.41c0-1.88-1.53-3.41-3.41-3.41h-13.15Z"/>
      <path class="cls-1" d="M87.99,298.86h-26.38c-2.23,0-4.14-1.28-5-3.34-.85-2.06-.4-4.32,1.17-5.89L289.63,57.78c1.58-1.58,3.83-2.03,5.89-1.17,2.06.85,3.34,2.77,3.34,5v26.38c0,1.45-.56,2.8-1.58,3.82l-205.47,205.47c-1.02,1.02-2.38,1.58-3.82,1.58ZM293.42,58.19c-.79,0-1.64.27-2.38,1L59.19,291.04c-1.19,1.19-1.16,2.7-.74,3.71.42,1.02,1.47,2.1,3.15,2.1h26.38c.91,0,1.77-.35,2.41-1l205.47-205.47c.64-.64,1-1.5,1-2.41v-26.38c0-1.68-1.09-2.73-2.1-3.15-.39-.16-.85-.26-1.34-.26Z"/>
      <path class="cls-1" d="M157.33,298.86h-26.38c-2.23,0-4.14-1.28-5-3.34-.85-2.06-.4-4.32,1.17-5.89l162.51-162.51c1.58-1.58,3.83-2.02,5.89-1.17,2.06.85,3.34,2.77,3.34,5v26.38c0,1.45-.56,2.8-1.58,3.82l-136.12,136.12c-1.02,1.02-2.38,1.58-3.82,1.58ZM293.42,127.53c-.79,0-1.64.27-2.38,1l-162.51,162.51c-1.19,1.19-1.16,2.7-.74,3.71.42,1.02,1.47,2.1,3.15,2.1h26.38c.91,0,1.77-.35,2.41-1l136.12-136.12c.64-.64,1-1.5,1-2.41v-26.38c0-1.68-1.09-2.73-2.1-3.15-.39-.16-.85-.26-1.34-.26Z"/>
      <path class="cls-1" d="M226.67,298.86h-26.38c-2.23,0-4.14-1.28-5-3.34-.85-2.06-.4-4.32,1.17-5.89l93.16-93.16c1.58-1.58,3.84-2.03,5.89-1.17,2.06.85,3.34,2.77,3.34,5v26.38c0,1.44-.56,2.8-1.58,3.82l-66.78,66.78c-1.02,1.02-2.38,1.58-3.82,1.58ZM293.42,196.88c-.79,0-1.64.27-2.38,1l-93.16,93.16c-1.19,1.19-1.16,2.7-.74,3.71.42,1.02,1.47,2.1,3.15,2.1h26.38c.91,0,1.77-.35,2.41-1l66.78-66.78c.64-.64,1-1.5,1-2.41v-26.38c0-1.68-1.09-2.73-2.1-3.15-.39-.16-.85-.26-1.34-.26Z"/>
      <path class="cls-1" d="M293.54,298.86h-23.91c-2.23,0-4.14-1.28-5-3.34-.85-2.06-.4-4.32,1.17-5.89l23.82-23.82c1.58-1.58,3.84-2.03,5.89-1.17,2.06.85,3.34,2.77,3.34,5v23.91c0,2.93-2.38,5.32-5.32,5.32ZM293.42,266.22c-.79,0-1.64.27-2.38,1l-23.82,23.82c-1.19,1.19-1.16,2.7-.74,3.71.42,1.02,1.47,2.1,3.15,2.1h23.91c1.83,0,3.32-1.49,3.32-3.32v-23.91c0-1.68-1.09-2.73-2.1-3.15-.39-.16-.85-.26-1.34-.26Z"/>
    </g>
  </g>
</svg>